<svg xmlns="http://www.w3.org/2000/svg" xmlns:xlink="http://www.w3.org/1999/xlink" id="eee213e9-97af-4505-8a71-c5d3405fc2e4" data-name="Layer 1" width="223.9" height="59.47" viewBox="0 0 223.9 59.47"><defs><style>.efe9b25e-47b2-48d2-82c2-33438baaa9ab{fill:none;}.b828838e-4d1c-420b-9a1a-a5901eef9d17,.f1f4742b-2c0b-455e-8bba-26fe844cf3f4{fill:#1c3f84;}.b9e7e79c-8305-48dc-b1e0-de9cc01dbe78{opacity:0.9;}.ac821732-6ef2-4764-9017-be01c881dd30{clip-path:url(#b7a02de7-6f1e-43b3-98d4-0930c6d5fcaf);}.f1f4742b-2c0b-455e-8bba-26fe844cf3f4{fill-rule:evenodd;}.bf39f16f-0293-497a-8fb8-4be897fcb07a{opacity:0.4;}.e6af0b47-bc3b-4525-b73d-eecc54ff5ce2{fill:#1d1d1b;}</style><clipPath id="b7a02de7-6f1e-43b3-98d4-0930c6d5fcaf"><rect class="efe9b25e-47b2-48d2-82c2-33438baaa9ab" x="180.34" y="17.57" width="43.56" height="32.71"></rect></clipPath></defs><path class="b828838e-4d1c-420b-9a1a-a5901eef9d17" d="M113.4,11.43c-.43,1-.87,1.92-1.3,2.87-.77,1.74-1.51,3.5-2.31,5.22-.26.57-.14.82.35,1.18a16.48,16.48,0,0,1,7.26,14.71A16.72,16.72,0,1,1,98,18a18.58,18.58,0,0,1,7.31.38l3.87-8.77L109,9.43l-7.44,4.38-2.36-4L115.9,0c1.34,6.38,2.65,12.63,4,18.93l-4.5,1c-.6-2.83-1.19-5.63-1.79-8.44Zm-.58,23.07a12.13,12.13,0,1,0-12.13,12.12A12.15,12.15,0,0,0,112.82,34.5Z"></path><path class="b828838e-4d1c-420b-9a1a-a5901eef9d17" d="M54.58,27.11H48a5.33,5.33,0,0,1-.17-.66,4.33,4.33,0,0,0-3.65-3.88,8.59,8.59,0,0,0-5.37.26,3.32,3.32,0,0,0-2,2.06,2.62,2.62,0,0,0,1.69,3.63c2.17.77,4.43,1.31,6.63,2A44.63,44.63,0,0,1,51,32.45c6.63,3.12,5.85,11.79,1.15,15.2a15,15,0,0,1-8,2.64A16.92,16.92,0,0,1,33.49,48a9.82,9.82,0,0,1-4.68-9h6.63c0,.06.09.1.09.15.33,4.06,3,5.37,6.07,5.67a9.9,9.9,0,0,0,5.1-.7A3.4,3.4,0,0,0,49,41.06,3,3,0,0,0,47,38c-2.17-.83-4.44-1.43-6.66-2.13-1.65-.52-3.36-1-4.94-1.59-3.16-1.25-5.28-3.42-5.5-7a8.71,8.71,0,0,1,4.7-8.63,14.88,14.88,0,0,1,8.35-1.77,15.6,15.6,0,0,1,7,1.83,9,9,0,0,1,4.72,7.6,4.51,4.51,0,0,1,0,.52A1.59,1.59,0,0,1,54.58,27.11Z"></path><path class="b828838e-4d1c-420b-9a1a-a5901eef9d17" d="M6.92,50.62H0V18.81a6.36,6.36,0,0,1,.75-.08c5,0,10-.14,14.93.08,7.1.29,10.39,5.58,9.67,11.69-.64,5.41-4.58,8.46-10,8.66-2.34.1-4.68,0-7,0-1.53,0-1.41-.22-1.44,1.37v8.92ZM6.92,29v4.15c0,.48.13.71.63.69,2.29,0,4.57,0,6.85-.15A4.29,4.29,0,0,0,18,31.73a4.74,4.74,0,0,0-3.62-7.44c-2.24-.19-4.51-.12-6.76-.18-.53,0-.7.19-.69.7C6.92,26.19,6.92,27.58,6.92,29Z"></path><path class="b828838e-4d1c-420b-9a1a-a5901eef9d17" d="M65.62,50.63H59.35V18.78h6.26V30.57l.19.09c.17-.2.34-.4.48-.6,3.11-4,8.65-3.71,11.62-1.85a6.67,6.67,0,0,1,3,5.79c.17,4.73.14,9.47.19,14.2v2.4H74.7v-13a14,14,0,0,0-.16-2.15c-.43-2.71-2.23-4-5-3.49-2.2.39-3.39,1.69-3.75,4.15a17.52,17.52,0,0,0-.18,2.5v11Z"></path><path class="b828838e-4d1c-420b-9a1a-a5901eef9d17" d="M134.76,45.43v4.76a18.64,18.64,0,0,1-7.52-.28,4.3,4.3,0,0,1-3.36-4.4c0-4.36,0-8.72,0-13.09V31.21H120V27c1,0,1.95,0,2.92,0,.72,0,1-.21,1-.93,0-2,0-3.92,0-5.95h6.23c0,.29,0,.59,0,.9,0,1.64,0,3.29,0,4.94,0,.76.17,1.1,1,1.05a22,22,0,0,1,3,0c.22,0,.62.28.62.44.06,1.21,0,2.4,0,3.7-1.35,0-2.59,0-3.83,0-.71,0-.88.23-.87.9V42.63a7,7,0,0,0,.14,1.38,1.42,1.42,0,0,0,1.26,1.26C132.58,45.37,133.64,45.4,134.76,45.43Z"></path><path class="b828838e-4d1c-420b-9a1a-a5901eef9d17" d="M138.71,18.84a5.4,5.4,0,1,1,5.43-5.37v.12A5.41,5.41,0,0,1,138.71,18.84Zm0-1a4.37,4.37,0,0,0,4.39-4.34v-.11a4.41,4.41,0,1,0-4.48,4.45Z"></path><path class="b828838e-4d1c-420b-9a1a-a5901eef9d17" d="M137.66,14.1v2.21h-1.35V10.6c1.07,0,2.12-.06,3.16,0A1.44,1.44,0,0,1,140.9,12a1.54,1.54,0,0,1-1.1,1.67l-.37.15c.95.59,1.18,1.63,1.82,2.53-.57,0-1,0-1.48,0a.63.63,0,0,1-.36-.28c-.28-.49-.52-1-.85-1.48a3.83,3.83,0,0,0-.73-.6Zm0-2.57c0,.24,0,.39,0,.55,0,1,.19,1.18,1.23.89a.69.69,0,0,0,.57-.7.64.64,0,0,0-.6-.66,8.31,8.31,0,0,0-1.17-.09Z"></path><g class="b9e7e79c-8305-48dc-b1e0-de9cc01dbe78"><g class="ac821732-6ef2-4764-9017-be01c881dd30"><path class="f1f4742b-2c0b-455e-8bba-26fe844cf3f4" d="M186.76,17.66a6.45,6.45,0,0,0-5.53,6.87c.15,2.71,1.71,4.17,5.75,5.39.61.18,1.12.35,1.15.37a12.1,12.1,0,0,1-.48,1.5c-.47,1.32-.52,1.45-.57,1.3-.61-1.91-4.58.67-5.18,3.36l0,.18-.1-.24a14.53,14.53,0,0,1-.63-2c-.14-.55-.15-.57-.33-.59h-.18v3.3c0,1.81,0,3.34,0,3.39.08.21.43.12.56-.14.31-.61.89-.62,2.69,0,4.48,1.46,8.7.75,10.94-1.83s2.48-6.68.25-8.77c-1-.89-1.69-1.23-4.74-2.19-4.09-1.28-4.87-1.57-5.75-2.16a3.72,3.72,0,0,1-1.55-4.22c.93-3.67,7.26-4.36,9.53-1,.08.12,1.14,2.92,2.34,6.23s2.83,7.76,3.62,9.92L200,40.21h.86l2.76-7.48c1.52-4.11,2.78-7.47,2.8-7.47s.06,0,.08.1,3.34,9.12,4.92,13.47l.49,1.35h.4c.38,0,.39,0,.46-.14S214.62,35,216.84,29l4-10.93,1.45,0h1.45v-.42H217V18h1.69c1.58,0,1.68,0,1.64.1s-5.48,14.84-6.21,16.83a8.3,8.3,0,0,1-.46,1.11s-1-2.52-2.08-5.61-2.57-7.1-3.22-8.92l-1.24-3.41c0-.09.06-.1,1.68-.1h1.71v-.42H201V18h1.33l1.34,0,1.18,3.21c.65,1.77,1.19,3.26,1.19,3.31S201.89,36,201.83,36a5.54,5.54,0,0,1-.36-.87c-.91-2.51-6.14-17-6.18-17.06s.06-.1,1.62-.1h1.65v-.42H192.9c-4.48,0-5.76,0-6.14.08M190,30.84c3.34,1.08,4.74,3,4.17,5.81s-2.44,4-5.82,4c-2.35,0-3.75-.48-4.93-1.68l-.35-.36h.3a3,3,0,0,0,2.2-1.26c.28-.33.28-.33.22-.12-.33,1.16.57,1.8,1.63,1.15.28-.18.31-.19.28-.08s0,.13.43.13h.47l.5-1.43c.89-2.55,1.77-4,2.64-4.23.52-.15.76.21.42.64s-.23.65.16.73a.73.73,0,0,0,.52-1.3c-.69-.64-1.69-.21-2.58,1.11-.25.37-.25.35,0-.46a7.46,7.46,0,0,0,.21-.74,5.88,5.88,0,0,0-2.09,0s.12.07.55.07.58,0,.58.07-1.41,4.32-1.6,4.68c-.32.62-1.19,1-1.35.56s-.09-.39,1.25-4.14l1.14-3.19a1.3,1.3,0,0,1,.1-.26l.94.3m-3.37,1.89c.5.26.47.65-.18,2.46a4.74,4.74,0,0,1-1.32,2.37c-1.48,1.48-2.62,1-2.18-.91.56-2.48,2.5-4.53,3.68-3.92M221,43.46a1.78,1.78,0,0,0-1.19,2.95,4.43,4.43,0,0,0,1.82.8c1.1.34,1.48.71,1.48,1.43,0,1-.53,1.45-1.71,1.45a1.87,1.87,0,0,1-2.07-1.67c-.12-.49-.18-.25-.18.74s.07,1.22.21.86c0-.12.34-.1,1.05.09,1.89.51,3.56-.54,3.41-2.15-.08-.9-.42-1.18-2.1-1.72-1.43-.45-1.91-.8-1.91-1.41,0-1.78,2.88-1.64,3.22.16.09.46.14.23.14-.58s-.05-1-.15-.75-.38.11-.72,0a2.53,2.53,0,0,0-1.3-.16m-38.37.13c-4.05,1.38-2.15,7.69,2,6.5.59-.18.89-.19,1-.06s.24.11.24-.87-.05-1.18-.21-.62a1.79,1.79,0,0,1-2,1.55c-1.56,0-2.09-.73-2.14-3-.07-2.53.54-3.54,2.14-3.54A1.77,1.77,0,0,1,185.42,45c.18.58.23.45.23-.56s0-1-.24-.81-.45.11-.93-.06a3.08,3.08,0,0,0-1.9,0m31.3,0a3.47,3.47,0,0,0-1.77,5.06,3.11,3.11,0,0,0,3.71,1.44c.6-.18.81-.19,1-.07s.27.15.27-.86,0-1.17-.24-.56a1.78,1.78,0,0,1-1.89,1.5c-1.48.06-2.08-.62-2.26-2.56-.23-2.53.53-4,2.1-4A1.81,1.81,0,0,1,216.71,45c.17.58.23.45.23-.53s0-1-.23-.85-.46.12-1,0a3,3,0,0,0-1.87,0m-26.43,0a1.27,1.27,0,0,0,.5.07l.5,0v3.14l0,3.14H188c-.3,0-.52,0-.52.06a25.27,25.27,0,0,0,2.8.06H193v-1c0-1,0-1.19-.18-.74-.37,1.25-.93,1.61-2.53,1.61h-1V43.69h.51c.3,0,.51,0,.51-.06a7.13,7.13,0,0,0-1.47-.06,7.61,7.61,0,0,0-1.48.06m7.21,0s.21.06.51.06h.51V50h-.51c-.3,0-.51,0-.51.06a18,18,0,0,0,2.94,0s-.21-.06-.51-.06h-.51V43.69h.51c.3,0,.51,0,.51-.06a18,18,0,0,0-2.94,0m4.38,0s.21.06.52.06h.51V50h-.51c-.31,0-.52,0-.52.06a4.64,4.64,0,0,0,1.09.06,4.51,4.51,0,0,0,1.08-.06S201,50,200.7,50h-.51V47c0-2.56,0-2.94.08-2.85s.92,1.45,1.94,3.08a26.17,26.17,0,0,0,1.95,3c.1,0,.11-.19.11-3.27V43.69h.51c.3,0,.51,0,.51-.06a9.75,9.75,0,0,0-2.16,0s.21.06.51.06h.51v2.44c0,1.34,0,2.42-.05,2.4s-.74-1.14-1.58-2.49L201,43.57h-1a3.29,3.29,0,0,0-1,.06m7.69,0a1.22,1.22,0,0,0,.5.07l.49,0,0,3.14V50h-.51c-.3,0-.51,0-.51.06a18,18,0,0,0,2.94,0s-.21-.06-.51-.06h-.51V43.69h.51c.3,0,.51,0,.51-.06a7.13,7.13,0,0,0-1.47-.06,7.46,7.46,0,0,0-1.47.06"></path></g></g><g class="bf39f16f-0293-497a-8fb8-4be897fcb07a"><path class="e6af0b47-bc3b-4525-b73d-eecc54ff5ce2" d="M147.78,49.35l8.27-10.76-6.85-9.25c-.26-.4-.48-.74-.68-1a2.89,2.89,0,0,0-.68-.71h4.89l6.15,8.27,6.31-8.21h3a5.19,5.19,0,0,0-.43.48c-.15.19-.31.4-.49.66L160.56,38l8.38,11.31h-3.1a3.75,3.75,0,0,1-1.52-.29,3.22,3.22,0,0,1-1.2-1l-5.6-7.4-6.69,8.7Z"></path></g></svg>